# xmcd
#
# Track frame offsets: 
#        150
#        25375
#        41835
#        55235
#        77397
#        104432
#        114982
#
# Disc length: 1992 seconds
#
# Revision: 3
# Processed by: cddbd v1.4PL0 Copyright (c) Steve Scherf et al.
# Submitted via: ExactAudioCopy v0.95a4
#
DISCID=5107c607
DTITLE=Dr. John - Gris -Gris
DYEAR=1968
DGENRE=Blues
TTITLE0=Gris-Gris Gumbo Ya Ya
TTITLE1=Danse Kalinda Ba Doom
TTITLE2=Mama Roux
TTITLE3=Danse Fambeaux
TTITLE4=Croker Courtbullion
TTITLE5=Jump Sturdy
TTITLE6=I Walk On Guilded Splinters
EXTD=
EXTT0=
EXTT1=
EXTT2=
EXTT3=
EXTT4=
EXTT5=
EXTT6=
PLAYORDER=
